<?xml version="1.0" encoding="UTF-8"?>
<svg xmlns="http://www.w3.org/2000/svg" viewBox="0 0 240 500" width="480" height="1000" style="background: #140d09; font-family: 'STKaiti', 'KaiTi', 'LXGW WenKai', serif;">
  <defs>
    <linearGradient id="meridian-export-front-bronze" x1="0%" y1="0%" x2="100%" y2="100%">
      <stop offset="0%" stop-color="#2a1f17" />
      <stop offset="35%" stop-color="#4a3422" />
      <stop offset="70%" stop-color="#684a2d" />
      <stop offset="100%" stop-color="#1f1610" />
    </linearGradient>
    <radialGradient id="meridian-export-front-halo" cx="50%" cy="48%" r="48%">
      <stop offset="0%" stop-color="#cda462" stop-opacity="0.3" />
      <stop offset="40%" stop-color="#8d6032" stop-opacity="0.12" />
      <stop offset="80%" stop-color="#3d2a1a" stop-opacity="0.04" />
      <stop offset="100%" stop-color="#000000" stop-opacity="0" />
    </radialGradient>
    <radialGradient id="meridian-export-front-dantian" cx="50%" cy="50%" r="50%">
      <stop offset="0%" stop-color="#ffe4a0" stop-opacity="0.8" />
      <stop offset="35%" stop-color="#ee6a4f" stop-opacity="0.4" />
      <stop offset="75%" stop-color="#b43a2d" stop-opacity="0.15" />
      <stop offset="100%" stop-color="#000000" stop-opacity="0" />
    </radialGradient>
    <linearGradient id="meridian-export-front-pedestal" x1="0%" y1="0%" x2="100%" y2="0%">
      <stop offset="0%" stop-color="rgba(217, 173, 91, 0)" />
      <stop offset="25%" stop-color="rgba(217, 173, 91, 0.4)" />
      <stop offset="50%" stop-color="rgba(255, 228, 160, 0.85)" />
      <stop offset="75%" stop-color="rgba(217, 173, 91, 0.4)" />
      <stop offset="100%" stop-color="rgba(217, 173, 91, 0)" />
    </linearGradient>
    <filter id="meridian-export-front-glow" x="-30%" y="-30%" width="160%" height="160%">
      <feGaussianBlur stdDeviation="3" result="blur" />
      <feMerge>
        <feMergeNode in="blur" />
        <feMergeNode in="SourceGraphic" />
      </feMerge>
    </filter>
  </defs>

  <style>
    .halo { fill: url(#meridian-export-front-halo); }
    .axis { stroke: rgba(217, 173, 91, 0.4); stroke-width: 0.8; stroke-dasharray: 2 6; fill: none; }
    .ruler { stroke: rgba(217, 173, 91, 0.25); stroke-width: 0.8; fill: none; }
    .body-head { fill: url(#meridian-export-front-bronze); stroke: rgba(217, 173, 91, 0.52); stroke-width: 1.2; }
    .body-torso { fill: url(#meridian-export-front-bronze); stroke: rgba(217, 173, 91, 0.48); stroke-width: 1.2; }
    .interior-detail { fill: none; stroke: rgba(217, 173, 91, 0.45); stroke-width: 1; stroke-linecap: round; stroke-linejoin: round; }
    .meridian-track { fill: none; stroke: rgba(217, 173, 91, 0.38); stroke-width: 4.5; stroke-linecap: round; }
    .meridian-base { fill: none; stroke: rgba(185, 140, 75, 0.55); stroke-width: 2.2; stroke-linecap: round; }
    .meridian-seg.is-opened { stroke: #ffe4a0; stroke-width: 3.5; stroke-dasharray: 8 3; filter: drop-shadow(0 0 4px rgba(255, 228, 160, 0.8)); }
    .meridian-badge rect { fill: #4c1d18; stroke: rgba(217, 173, 91, 0.6); stroke-width: 0.9; }
    .meridian-badge text { fill: #ffe4a0; font-size: 8.5px; font-weight: bold; text-anchor: middle; }
    .node-glow { fill: rgba(255, 228, 160, 0.2); }
    .node-ring { fill: #d9ad5b; stroke: #ffe4a0; stroke-width: 1.5; filter: drop-shadow(0 0 5px rgba(245, 188, 91, 0.9)); }
    .node-core { fill: #ffffff; }
    .node-callout line { stroke: rgba(255, 228, 160, 0.6); stroke-width: 0.8; }
    .node-callout text { fill: #ffe4a0; font-size: 8.5px; paint-order: stroke; stroke: rgba(19, 12, 8, 0.92); stroke-width: 2.5px; stroke-linejoin: round; }
  </style>

  <ellipse class="halo" cx="120" cy="245" rx="114" ry="240" />
  <ellipse cx="120" cy="245" rx="108" ry="232" fill="none" stroke="rgba(217, 173, 91, 0.14)" stroke-width="0.8" stroke-dasharray="3 7" />
  <path class="axis" d="M120 12V486" />
  <g class="ruler">
    <line x1="14" y1="24" x2="24" y2="24" /><line x1="226" y1="24" x2="216" y2="24" /><line x1="14" y1="56" x2="19" y2="56" /><line x1="226" y1="56" x2="221" y2="56" /><line x1="14" y1="88" x2="24" y2="88" /><line x1="226" y1="88" x2="216" y2="88" /><line x1="14" y1="120" x2="19" y2="120" /><line x1="226" y1="120" x2="221" y2="120" /><line x1="14" y1="152" x2="24" y2="152" /><line x1="226" y1="152" x2="216" y2="152" /><line x1="14" y1="184" x2="19" y2="184" /><line x1="226" y1="184" x2="221" y2="184" /><line x1="14" y1="216" x2="24" y2="216" /><line x1="226" y1="216" x2="216" y2="216" /><line x1="14" y1="248" x2="19" y2="248" /><line x1="226" y1="248" x2="221" y2="248" /><line x1="14" y1="280" x2="24" y2="280" /><line x1="226" y1="280" x2="216" y2="280" /><line x1="14" y1="312" x2="19" y2="312" /><line x1="226" y1="312" x2="221" y2="312" /><line x1="14" y1="344" x2="24" y2="344" /><line x1="226" y1="344" x2="216" y2="344" /><line x1="14" y1="376" x2="19" y2="376" /><line x1="226" y1="376" x2="221" y2="376" /><line x1="14" y1="408" x2="24" y2="408" /><line x1="226" y1="408" x2="216" y2="408" /><line x1="14" y1="440" x2="19" y2="440" /><line x1="226" y1="440" x2="221" y2="440" /><line x1="14" y1="472" x2="24" y2="472" /><line x1="226" y1="472" x2="216" y2="472" />
  </g>

  <g class="bronze-figure">
    <path class="body-head" d="M113 14 C113 8, 127 8, 127 14 C127 19, 124 23, 124 26 C134 27, 137 36, 137 46 C139 52, 138 58, 135 62 C132 68, 126 74, 120 74 C114 74, 108 68, 105 62 C102 58, 101 52, 103 46 C103 36, 106 27, 116 26 C116 23, 113 19, 113 14 Z" />
    <path class="body-torso" d="M109 74 C109 84, 95 95, 68 106 C56 111, 48 122, 46 136 C44 152, 40 170, 38 188 C36 210, 35 235, 34 256 C33 268, 32 280, 33 288 C35 291, 41 291, 43 288 C45 280, 45 268, 46 256 C47 235, 48 210, 50 188 C52 170, 56 152, 64 136 C66 142, 70 156, 72 172 C74 190, 78 208, 80 224 C82 240, 78 258, 76 276 C74 298, 72 325, 72 352 C72 366, 73 378, 74 388 C75 402, 68 420, 68 438 C68 452, 72 464, 74 472 C75 476, 70 482, 72 484 C76 486, 94 486, 98 484 C100 482, 96 476, 95 472 C94 464, 93 452, 92 438 C91 420, 92 402, 94 388 C96 378, 97 366, 98 352 C100 325, 108 298, 120 286 C132 298, 140 325, 142 352 C143 366, 144 378, 146 388 C148 402, 149 420, 148 438 C147 452, 146 464, 145 472 C144 476, 140 482, 142 484 C146 486, 164 486, 168 484 C170 482, 165 476, 166 472 C168 464, 172 452, 172 438 C172 420, 165 402, 166 388 C167 378, 168 366, 168 352 C168 325, 166 298, 164 276 C162 258, 158 240, 160 224 C162 208, 166 190, 168 172 C170 156, 174 142, 176 136 C184 152, 188 170, 190 188 C192 210, 193 235, 194 256 C195 268, 195 280, 197 288 C199 291, 205 291, 207 288 C208 280, 207 268, 206 256 C205 235, 204 210, 202 188 C200 170, 196 152, 194 136 C192 122, 184 111, 172 106 C145 95, 131 84, 131 74 C125 74, 115 74, 109 74 Z" />

    
      <g class="front-interior">
        <path d="M110 20H130" stroke="rgba(217, 173, 91, 0.4)" stroke-width="1" fill="none" />
        <path d="M120 86C110 85 92 90 72 98M120 86C130 85 148 90 168 98" class="interior-detail" />
        <path d="M78 132C92 144 110 144 120 136C130 144 148 144 162 132" class="interior-detail" />
        <path d="M120 86V158" stroke="rgba(217, 173, 91, 0.3)" stroke-width="0.9" stroke-dasharray="1 3" />
        <path d="M82 190C95 174 110 168 120 168C130 168 145 174 158 190" class="interior-detail" />
        <circle cx="120" cy="228" r="16" fill="url(#meridian-export-front-dantian)" />
        <circle cx="120" cy="228" r="2.5" fill="rgba(255, 228, 160, 0.85)" />
        <circle cx="120" cy="228" r="7" fill="none" stroke="rgba(217, 173, 91, 0.38)" stroke-width="0.8" stroke-dasharray="2 2" />
        <path d="M86 270C98 282 112 286 120 286C128 286 142 282 154 270" class="interior-detail" />
        <ellipse cx="85" cy="378" rx="6" ry="8" class="interior-detail" />
        <ellipse cx="155" cy="378" rx="6" ry="8" class="interior-detail" />
        <path d="M85 395C84 418 82 442 84 458M155 395C156 418 158 442 156 458" stroke="rgba(217, 173, 91, 0.22)" stroke-width="0.8" fill="none" />
      </g>
    

    <path d="M50 486 C72 478, 110 476, 120 476 C130 476, 168 478, 190 486 C165 496, 75 496, 50 486 Z" fill="rgba(28, 20, 14, 0.88)" stroke="url(#meridian-export-front-pedestal)" stroke-width="1.2" />
    <path d="M75 484 C88 479, 106 479, 118 483 M122 483 C134 479, 152 479, 165 484" stroke="rgba(255, 228, 160, 0.45)" stroke-width="0.8" fill="none" />
  </g>

  <g class="meridian-paths">
    
      <g class="meridian-channel-group" data-id="ren">
        <path class="meridian-track" d="M120 395 V68" />
        <polyline class="meridian-base" points="120,84 120,156 120,228 120,300 120,378" />
        <line class="meridian-seg is-opened" x1="120" y1="84" x2="120" y2="156" /><line class="meridian-seg is-opened" x1="120" y1="156" x2="120" y2="228" /><line class="meridian-seg is-opened" x1="120" y1="228" x2="120" y2="300" /><line class="meridian-seg is-opened" x1="120" y1="300" x2="120" y2="378" />
        <g class="meridian-badge">
          <rect x="108" y="50" width="24" height="16" rx="3" />
          <text x="120" y="61.5">任</text>
        </g>
      </g>
    
      <g class="meridian-channel-group" data-id="chong">
        <path class="meridian-track" d="M91 445 C92 410, 99 350, 101 322 C101 290, 101 210, 101 176 C101 145, 101 120, 101 90" />
        <polyline class="meridian-base" points="101,102 101,176 101,248 101,322 93,430" />
        <line class="meridian-seg is-opened" x1="101" y1="102" x2="101" y2="176" /><line class="meridian-seg is-opened" x1="101" y1="176" x2="101" y2="248" /><line class="meridian-seg is-opened" x1="101" y1="248" x2="101" y2="322" /><line class="meridian-seg is-opened" x1="101" y1="322" x2="93" y2="430" />
        <g class="meridian-badge">
          <rect x="89" y="70" width="24" height="16" rx="3" />
          <text x="101" y="81.5">冲</text>
        </g>
      </g>
    
      <g class="meridian-channel-group" data-id="dai">
        <path class="meridian-track" d="M56 244 C76 232, 100 228, 120 228 C140 228, 164 232, 184 244" />
        <polyline class="meridian-base" points="60,242 88,231 120,228 152,231 180,242" />
        <line class="meridian-seg is-opened" x1="60" y1="242" x2="88" y2="231" /><line class="meridian-seg is-opened" x1="88" y1="231" x2="120" y2="228" /><line class="meridian-seg is-opened" x1="120" y1="228" x2="152" y2="231" /><line class="meridian-seg is-opened" x1="152" y1="231" x2="180" y2="242" />
        <g class="meridian-badge">
          <rect x="40" y="240" width="24" height="16" rx="3" />
          <text x="52" y="251.5">带</text>
        </g>
      </g>
    
      <g class="meridian-channel-group" data-id="yinqiao">
        <path class="meridian-track" d="M78 450 C78 410, 81 375, 83 356 C85 320, 86 295, 87 278 C89 240, 90 220, 91 198 C93 160, 95 135, 96 105" />
        <polyline class="meridian-base" points="79,434 83,356 87,278 91,198 96,116" />
        <line class="meridian-seg is-opened" x1="79" y1="434" x2="83" y2="356" /><line class="meridian-seg is-opened" x1="83" y1="356" x2="87" y2="278" /><line class="meridian-seg is-opened" x1="87" y1="278" x2="91" y2="198" /><line class="meridian-seg is-opened" x1="91" y1="198" x2="96" y2="116" />
        <g class="meridian-badge">
          <rect x="84" y="86" width="24" height="16" rx="3" />
          <text x="96" y="97.5">阴跷</text>
        </g>
      </g>
    
      <g class="meridian-channel-group" data-id="yinwei">
        <path class="meridian-track" d="M162 450 C162 410, 159 375, 157 350 C155 320, 154 295, 153 270 C151 240, 150 220, 149 190 C147 160, 145 135, 144 105" />
        <polyline class="meridian-base" points="161,432 157,350 153,270 149,190 144,110" />
        <line class="meridian-seg is-opened" x1="161" y1="432" x2="157" y2="350" /><line class="meridian-seg is-opened" x1="157" y1="350" x2="153" y2="270" /><line class="meridian-seg is-opened" x1="153" y1="270" x2="149" y2="190" /><line class="meridian-seg is-opened" x1="149" y1="190" x2="144" y2="110" />
        <g class="meridian-badge">
          <rect x="132" y="86" width="24" height="16" rx="3" />
          <text x="144" y="97.5">阴维</text>
        </g>
      </g>
    
  </g>

  <g class="meridian-nodes">
    
        <g class="meridian-node is-opened" transform="translate(120, 84)">
          <circle class="node-glow" r="10" />
          <circle class="node-ring" r="6" />
          <circle class="node-core" r="2.5" />
          <g class="node-callout">
            <line x1="10" y1="-2" x2="24" y2="-2" />
            <text x="28" y="2">天突</text>
          </g>
        </g>
      
        <g class="meridian-node is-opened" transform="translate(120, 156)">
          <circle class="node-glow" r="10" />
          <circle class="node-ring" r="6" />
          <circle class="node-core" r="2.5" />
          <g class="node-callout">
            <line x1="10" y1="-2" x2="24" y2="-2" />
            <text x="28" y="2">膻中</text>
          </g>
        </g>
      
        <g class="meridian-node is-opened" transform="translate(120, 228)">
          <circle class="node-glow" r="10" />
          <circle class="node-ring" r="6" />
          <circle class="node-core" r="2.5" />
          <g class="node-callout">
            <line x1="10" y1="-2" x2="24" y2="-2" />
            <text x="28" y="2">神阙</text>
          </g>
        </g>
      
        <g class="meridian-node is-opened" transform="translate(120, 300)">
          <circle class="node-glow" r="10" />
          <circle class="node-ring" r="6" />
          <circle class="node-core" r="2.5" />
          <g class="node-callout">
            <line x1="10" y1="-2" x2="24" y2="-2" />
            <text x="28" y="2">气海</text>
          </g>
        </g>
      
        <g class="meridian-node is-opened" transform="translate(120, 378)">
          <circle class="node-glow" r="10" />
          <circle class="node-ring" r="6" />
          <circle class="node-core" r="2.5" />
          <g class="node-callout">
            <line x1="10" y1="-2" x2="24" y2="-2" />
            <text x="28" y="2">会阴</text>
          </g>
        </g>
      
        <g class="meridian-node is-opened" transform="translate(101, 102)">
          <circle class="node-glow" r="10" />
          <circle class="node-ring" r="6" />
          <circle class="node-core" r="2.5" />
          <g class="node-callout">
            <line x1="10" y1="-2" x2="24" y2="-2" />
            <text x="28" y="2">幽门</text>
          </g>
        </g>
      
        <g class="meridian-node is-opened" transform="translate(101, 176)">
          <circle class="node-glow" r="10" />
          <circle class="node-ring" r="6" />
          <circle class="node-core" r="2.5" />
          <g class="node-callout">
            <line x1="10" y1="-2" x2="24" y2="-2" />
            <text x="28" y="2">商曲</text>
          </g>
        </g>
      
        <g class="meridian-node is-opened" transform="translate(101, 248)">
          <circle class="node-glow" r="10" />
          <circle class="node-ring" r="6" />
          <circle class="node-core" r="2.5" />
          <g class="node-callout">
            <line x1="10" y1="-2" x2="24" y2="-2" />
            <text x="28" y="2">阴交</text>
          </g>
        </g>
      
        <g class="meridian-node is-opened" transform="translate(101, 322)">
          <circle class="node-glow" r="10" />
          <circle class="node-ring" r="6" />
          <circle class="node-core" r="2.5" />
          <g class="node-callout">
            <line x1="10" y1="-2" x2="24" y2="-2" />
            <text x="28" y="2">大赫</text>
          </g>
        </g>
      
        <g class="meridian-node is-opened" transform="translate(93, 430)">
          <circle class="node-glow" r="10" />
          <circle class="node-ring" r="6" />
          <circle class="node-core" r="2.5" />
          <g class="node-callout">
            <line x1="10" y1="-2" x2="24" y2="-2" />
            <text x="28" y="2">公孙</text>
          </g>
        </g>
      
        <g class="meridian-node is-opened" transform="translate(60, 242)">
          <circle class="node-glow" r="10" />
          <circle class="node-ring" r="6" />
          <circle class="node-core" r="2.5" />
          <g class="node-callout">
            <line x1="10" y1="-2" x2="24" y2="-2" />
            <text x="28" y="2">五枢</text>
          </g>
        </g>
      
        <g class="meridian-node is-opened" transform="translate(88, 231)">
          <circle class="node-glow" r="10" />
          <circle class="node-ring" r="6" />
          <circle class="node-core" r="2.5" />
          <g class="node-callout">
            <line x1="10" y1="-2" x2="24" y2="-2" />
            <text x="28" y="2">带脉</text>
          </g>
        </g>
      
        <g class="meridian-node is-opened" transform="translate(120, 228)">
          <circle class="node-glow" r="10" />
          <circle class="node-ring" r="6" />
          <circle class="node-core" r="2.5" />
          <g class="node-callout">
            <line x1="10" y1="-2" x2="24" y2="-2" />
            <text x="28" y="2">神阙</text>
          </g>
        </g>
      
        <g class="meridian-node is-opened" transform="translate(152, 231)">
          <circle class="node-glow" r="10" />
          <circle class="node-ring" r="6" />
          <circle class="node-core" r="2.5" />
          <g class="node-callout">
            <line x1="10" y1="-2" x2="24" y2="-2" />
            <text x="28" y="2">维道</text>
          </g>
        </g>
      
        <g class="meridian-node is-opened" transform="translate(180, 242)">
          <circle class="node-glow" r="10" />
          <circle class="node-ring" r="6" />
          <circle class="node-core" r="2.5" />
          <g class="node-callout">
            <line x1="10" y1="-2" x2="24" y2="-2" />
            <text x="28" y="2">足临泣</text>
          </g>
        </g>
      
        <g class="meridian-node is-opened" transform="translate(79, 434)">
          <circle class="node-glow" r="10" />
          <circle class="node-ring" r="6" />
          <circle class="node-core" r="2.5" />
          <g class="node-callout">
            <line x1="10" y1="-2" x2="24" y2="-2" />
            <text x="28" y="2">照海</text>
          </g>
        </g>
      
        <g class="meridian-node is-opened" transform="translate(83, 356)">
          <circle class="node-glow" r="10" />
          <circle class="node-ring" r="6" />
          <circle class="node-core" r="2.5" />
          <g class="node-callout">
            <line x1="10" y1="-2" x2="24" y2="-2" />
            <text x="28" y="2">交信</text>
          </g>
        </g>
      
        <g class="meridian-node is-opened" transform="translate(87, 278)">
          <circle class="node-glow" r="10" />
          <circle class="node-ring" r="6" />
          <circle class="node-core" r="2.5" />
          <g class="node-callout">
            <line x1="10" y1="-2" x2="24" y2="-2" />
            <text x="28" y="2">阴谷</text>
          </g>
        </g>
      
        <g class="meridian-node is-opened" transform="translate(91, 198)">
          <circle class="node-glow" r="10" />
          <circle class="node-ring" r="6" />
          <circle class="node-core" r="2.5" />
          <g class="node-callout">
            <line x1="10" y1="-2" x2="24" y2="-2" />
            <text x="28" y="2">横骨</text>
          </g>
        </g>
      
        <g class="meridian-node is-opened" transform="translate(96, 116)">
          <circle class="node-glow" r="10" />
          <circle class="node-ring" r="6" />
          <circle class="node-core" r="2.5" />
          <g class="node-callout">
            <line x1="10" y1="-2" x2="24" y2="-2" />
            <text x="28" y="2">睛明</text>
          </g>
        </g>
      
        <g class="meridian-node is-opened" transform="translate(161, 432)">
          <circle class="node-glow" r="10" />
          <circle class="node-ring" r="6" />
          <circle class="node-core" r="2.5" />
          <g class="node-callout">
            <line x1="10" y1="-2" x2="24" y2="-2" />
            <text x="28" y="2">筑宾</text>
          </g>
        </g>
      
        <g class="meridian-node is-opened" transform="translate(157, 350)">
          <circle class="node-glow" r="10" />
          <circle class="node-ring" r="6" />
          <circle class="node-core" r="2.5" />
          <g class="node-callout">
            <line x1="10" y1="-2" x2="24" y2="-2" />
            <text x="28" y="2">府舍</text>
          </g>
        </g>
      
        <g class="meridian-node is-opened" transform="translate(153, 270)">
          <circle class="node-glow" r="10" />
          <circle class="node-ring" r="6" />
          <circle class="node-core" r="2.5" />
          <g class="node-callout">
            <line x1="10" y1="-2" x2="24" y2="-2" />
            <text x="28" y="2">期门</text>
          </g>
        </g>
      
        <g class="meridian-node is-opened" transform="translate(149, 190)">
          <circle class="node-glow" r="10" />
          <circle class="node-ring" r="6" />
          <circle class="node-core" r="2.5" />
          <g class="node-callout">
            <line x1="10" y1="-2" x2="24" y2="-2" />
            <text x="28" y="2">天突</text>
          </g>
        </g>
      
        <g class="meridian-node is-opened" transform="translate(144, 110)">
          <circle class="node-glow" r="10" />
          <circle class="node-ring" r="6" />
          <circle class="node-core" r="2.5" />
          <g class="node-callout">
            <line x1="10" y1="-2" x2="24" y2="-2" />
            <text x="28" y="2">廉泉</text>
          </g>
        </g>
      
  </g>
</svg>